<mxfile host="app.diagrams.net" modified="2024-04-29T15:34:00.085Z" agent="Mozilla/5.0 (X11; Linux x86_64) AppleWebKit/537.36 (KHTML, like Gecko) Chrome/123.0.0.0 Safari/537.36" etag="TRpyj_CLlT1v8dyaC3Kp" version="24.3.1" type="github">
  <diagram name="Page-1" id="IpCxHiP5fQjlRUhZVsv_">
    <mxGraphModel dx="3749" dy="1114" grid="1" gridSize="10" guides="1" tooltips="1" connect="1" arrows="1" fold="1" page="1" pageScale="1" pageWidth="1700" pageHeight="1100" math="0" shadow="0">
      <root>
        <mxCell id="0" />
        <mxCell id="1" parent="0" />
        <mxCell id="2nhumJkl5wTfImcDvtph-43" value="" style="swimlane;startSize=0;dashed=1;fillColor=#d5e8d4;strokeColor=#82b366;" parent="1" vertex="1">
          <mxGeometry x="980" y="240" width="300" height="690" as="geometry" />
        </mxCell>
        <mxCell id="2nhumJkl5wTfImcDvtph-62" value="&lt;div&gt;memory_data&lt;/div&gt;" style="text;html=1;align=center;verticalAlign=middle;whiteSpace=wrap;rounded=0;" parent="2nhumJkl5wTfImcDvtph-43" vertex="1">
          <mxGeometry x="172" y="480" width="60" height="30" as="geometry" />
        </mxCell>
        <mxCell id="7AGCUOTx4ptlF9nV3zEV-152" value="Forwarding Unit&lt;br&gt;" style="rounded=1;whiteSpace=wrap;html=1;fillColor=#0050ef;fontColor=#ffffff;strokeColor=#001DBC;" parent="2nhumJkl5wTfImcDvtph-43" vertex="1">
          <mxGeometry x="100" y="560" width="60" height="80" as="geometry" />
        </mxCell>
        <mxCell id="WGRCAQS2CZB4Ie9VM8L0-38" value="ALU Control" style="ellipse;whiteSpace=wrap;html=1;fillColor=#0050ef;fontColor=#ffffff;strokeColor=#001DBC;" parent="2nhumJkl5wTfImcDvtph-43" vertex="1">
          <mxGeometry x="232" y="570" width="40" height="80" as="geometry" />
        </mxCell>
        <mxCell id="7AGCUOTx4ptlF9nV3zEV-26" value="mux&lt;br&gt;" style="rounded=1;whiteSpace=wrap;html=1;" parent="2nhumJkl5wTfImcDvtph-43" vertex="1">
          <mxGeometry x="160" y="370" width="30" height="50" as="geometry" />
        </mxCell>
        <mxCell id="2nhumJkl5wTfImcDvtph-3" value="mux_ctrl_left" style="text;html=1;align=center;verticalAlign=middle;whiteSpace=wrap;rounded=0;" parent="2nhumJkl5wTfImcDvtph-43" vertex="1">
          <mxGeometry x="60" y="530" width="60" height="30" as="geometry" />
        </mxCell>
        <mxCell id="2nhumJkl5wTfImcDvtph-4" value="mux_ctrl_right" style="text;html=1;align=center;verticalAlign=middle;whiteSpace=wrap;rounded=0;" parent="2nhumJkl5wTfImcDvtph-43" vertex="1">
          <mxGeometry x="150" y="530" width="60" height="30" as="geometry" />
        </mxCell>
        <mxCell id="KFCvP4lCxzIlAEKNkX3P-14" value="" style="shape=waypoint;sketch=0;fillStyle=solid;size=6;pointerEvents=1;points=[];fillColor=none;resizable=0;rotatable=0;perimeter=centerPerimeter;snapToPoint=1;" parent="2nhumJkl5wTfImcDvtph-43" vertex="1">
          <mxGeometry x="50" y="630" width="20" height="20" as="geometry" />
        </mxCell>
        <mxCell id="2nhumJkl5wTfImcDvtph-38" value="" style="swimlane;startSize=0;dashed=1;fillColor=#d5e8d4;strokeColor=#82b366;swimlaneLine=1;" parent="1" vertex="1">
          <mxGeometry x="470" y="150" width="440" height="740" as="geometry" />
        </mxCell>
        <mxCell id="BDfC4eA5wMOMeH6UXcKp-3" value="mux&lt;br&gt;" style="rounded=1;whiteSpace=wrap;html=1;" parent="2nhumJkl5wTfImcDvtph-38" vertex="1">
          <mxGeometry x="387.5" y="400" width="42.5" height="70" as="geometry" />
        </mxCell>
        <mxCell id="BDfC4eA5wMOMeH6UXcKp-4" value="mux&lt;br&gt;" style="rounded=1;whiteSpace=wrap;html=1;" parent="2nhumJkl5wTfImcDvtph-38" vertex="1">
          <mxGeometry x="387.5" y="500" width="40" height="70" as="geometry" />
        </mxCell>
        <mxCell id="BDfC4eA5wMOMeH6UXcKp-9" value="" style="endArrow=classic;html=1;rounded=0;entryX=0;entryY=0.5;entryDx=0;entryDy=0;" parent="2nhumJkl5wTfImcDvtph-38" edge="1">
          <mxGeometry width="50" height="50" relative="1" as="geometry">
            <mxPoint x="360" y="552" as="sourcePoint" />
            <mxPoint x="387.5" y="457" as="targetPoint" />
            <Array as="points">
              <mxPoint x="360" y="457" />
            </Array>
          </mxGeometry>
        </mxCell>
        <mxCell id="BDfC4eA5wMOMeH6UXcKp-10" value="" style="endArrow=classic;html=1;rounded=0;entryX=0;entryY=0.5;entryDx=0;entryDy=0;" parent="2nhumJkl5wTfImcDvtph-38" edge="1">
          <mxGeometry width="50" height="50" relative="1" as="geometry">
            <mxPoint x="327.5" y="534.98" as="sourcePoint" />
            <mxPoint x="387.5" y="534.8800000000001" as="targetPoint" />
          </mxGeometry>
        </mxCell>
        <mxCell id="BDfC4eA5wMOMeH6UXcKp-11" value="" style="endArrow=classic;html=1;rounded=0;entryX=0;entryY=0.5;entryDx=0;entryDy=0;" parent="2nhumJkl5wTfImcDvtph-38" edge="1">
          <mxGeometry width="50" height="50" relative="1" as="geometry">
            <mxPoint x="330" y="552" as="sourcePoint" />
            <mxPoint x="390" y="551.9" as="targetPoint" />
          </mxGeometry>
        </mxCell>
        <mxCell id="BDfC4eA5wMOMeH6UXcKp-14" value="forward_ex_mem" style="text;html=1;align=center;verticalAlign=middle;whiteSpace=wrap;rounded=0;" parent="2nhumJkl5wTfImcDvtph-38" vertex="1">
          <mxGeometry x="240" y="520" width="60" height="30" as="geometry" />
        </mxCell>
        <mxCell id="BDfC4eA5wMOMeH6UXcKp-15" value="forward_mem_wb" style="text;html=1;align=center;verticalAlign=middle;whiteSpace=wrap;rounded=0;" parent="2nhumJkl5wTfImcDvtph-38" vertex="1">
          <mxGeometry x="240" y="537" width="60" height="30" as="geometry" />
        </mxCell>
        <mxCell id="KFCvP4lCxzIlAEKNkX3P-3" value="" style="shape=waypoint;sketch=0;fillStyle=solid;size=6;pointerEvents=1;points=[];fillColor=none;resizable=0;rotatable=0;perimeter=centerPerimeter;snapToPoint=1;" parent="2nhumJkl5wTfImcDvtph-38" vertex="1">
          <mxGeometry x="350" y="542" width="20" height="20" as="geometry" />
        </mxCell>
        <mxCell id="iRF73-ydp--cM6KkQBau-15" value="[19-15]" style="text;html=1;align=center;verticalAlign=middle;whiteSpace=wrap;rounded=0;" parent="2nhumJkl5wTfImcDvtph-38" vertex="1">
          <mxGeometry x="17" y="410" width="60" height="30" as="geometry" />
        </mxCell>
        <mxCell id="iRF73-ydp--cM6KkQBau-18" value="[24-20]" style="text;html=1;align=center;verticalAlign=middle;whiteSpace=wrap;rounded=0;" parent="2nhumJkl5wTfImcDvtph-38" vertex="1">
          <mxGeometry x="17" y="440" width="60" height="30" as="geometry" />
        </mxCell>
        <mxCell id="iRF73-ydp--cM6KkQBau-14" value="read2_data" style="text;html=1;align=center;verticalAlign=middle;whiteSpace=wrap;rounded=0;" parent="2nhumJkl5wTfImcDvtph-38" vertex="1">
          <mxGeometry x="68" y="440" width="60" height="30" as="geometry" />
        </mxCell>
        <mxCell id="iRF73-ydp--cM6KkQBau-13" value="read1_data" style="text;html=1;align=center;verticalAlign=middle;whiteSpace=wrap;rounded=0;" parent="2nhumJkl5wTfImcDvtph-38" vertex="1">
          <mxGeometry x="68" y="410" width="60" height="30" as="geometry" />
        </mxCell>
        <mxCell id="7AGCUOTx4ptlF9nV3zEV-153" value="Hazard Detection Unit&lt;br&gt;" style="rounded=1;whiteSpace=wrap;html=1;fillColor=#0050ef;fontColor=#ffffff;strokeColor=#001DBC;" parent="2nhumJkl5wTfImcDvtph-38" vertex="1">
          <mxGeometry x="30" y="30" width="85" height="90" as="geometry" />
        </mxCell>
        <mxCell id="7AGCUOTx4ptlF9nV3zEV-120" value="" style="edgeStyle=orthogonalEdgeStyle;rounded=0;orthogonalLoop=1;jettySize=auto;html=1;exitX=0.997;exitY=0.274;exitDx=0;exitDy=0;entryDx=0;entryDy=0;endArrow=none;endFill=0;exitPerimeter=0;" parent="2nhumJkl5wTfImcDvtph-38" source="7AGCUOTx4ptlF9nV3zEV-8" edge="1">
          <mxGeometry relative="1" as="geometry">
            <mxPoint x="30" y="430" as="targetPoint" />
            <mxPoint x="10" y="430" as="sourcePoint" />
          </mxGeometry>
        </mxCell>
        <mxCell id="1hy8bIU-TZn22G8GkrLQ-6" style="edgeStyle=orthogonalEdgeStyle;rounded=0;orthogonalLoop=1;jettySize=auto;html=1;entryX=0;entryY=0.75;entryDx=0;entryDy=0;exitX=1;exitY=0.5;exitDx=0;exitDy=0;" parent="1" source="7AGCUOTx4ptlF9nV3zEV-2" target="1hy8bIU-TZn22G8GkrLQ-3" edge="1">
          <mxGeometry relative="1" as="geometry">
            <mxPoint x="100" y="633" as="sourcePoint" />
            <Array as="points">
              <mxPoint x="170" y="589" />
              <mxPoint x="170" y="640" />
              <mxPoint x="310" y="640" />
              <mxPoint x="310" y="628" />
            </Array>
          </mxGeometry>
        </mxCell>
        <mxCell id="7AGCUOTx4ptlF9nV3zEV-2" value="Instruction Memory" style="rounded=0;whiteSpace=wrap;html=1;" parent="1" vertex="1">
          <mxGeometry x="67.03999999999999" y="529.13" width="80" height="120" as="geometry" />
        </mxCell>
        <mxCell id="7AGCUOTx4ptlF9nV3zEV-39" style="edgeStyle=orthogonalEdgeStyle;rounded=0;orthogonalLoop=1;jettySize=auto;html=1;exitX=1;exitY=0.5;exitDx=0;exitDy=0;entryX=0;entryY=0.5;entryDx=0;entryDy=0;" parent="1" source="7AGCUOTx4ptlF9nV3zEV-3" target="7AGCUOTx4ptlF9nV3zEV-2" edge="1">
          <mxGeometry relative="1" as="geometry" />
        </mxCell>
        <mxCell id="7AGCUOTx4ptlF9nV3zEV-40" style="edgeStyle=orthogonalEdgeStyle;rounded=0;orthogonalLoop=1;jettySize=auto;html=1;exitX=1;exitY=0.5;exitDx=0;exitDy=0;entryX=0.25;entryY=1;entryDx=0;entryDy=0;" parent="1" source="7AGCUOTx4ptlF9nV3zEV-3" target="7AGCUOTx4ptlF9nV3zEV-7" edge="1">
          <mxGeometry relative="1" as="geometry">
            <Array as="points">
              <mxPoint x="27.04" y="589.13" />
              <mxPoint x="27.04" y="409.13" />
            </Array>
          </mxGeometry>
        </mxCell>
        <mxCell id="r3CQyimWaxTI8VOWc62i-3" value="pc&lt;br&gt;" style="edgeLabel;html=1;align=center;verticalAlign=middle;resizable=0;points=[];" parent="7AGCUOTx4ptlF9nV3zEV-40" vertex="1" connectable="0">
          <mxGeometry x="-0.3047" y="-2" relative="1" as="geometry">
            <mxPoint as="offset" />
          </mxGeometry>
        </mxCell>
        <mxCell id="7AGCUOTx4ptlF9nV3zEV-3" value="PC&lt;br&gt;" style="rounded=0;whiteSpace=wrap;html=1;" parent="1" vertex="1">
          <mxGeometry x="-32.96" y="549.96" width="40" height="80" as="geometry" />
        </mxCell>
        <mxCell id="7AGCUOTx4ptlF9nV3zEV-38" style="edgeStyle=orthogonalEdgeStyle;rounded=0;orthogonalLoop=1;jettySize=auto;html=1;exitX=1;exitY=0.5;exitDx=0;exitDy=0;entryX=0;entryY=0.5;entryDx=0;entryDy=0;" parent="1" source="7AGCUOTx4ptlF9nV3zEV-5" target="7AGCUOTx4ptlF9nV3zEV-3" edge="1">
          <mxGeometry relative="1" as="geometry" />
        </mxCell>
        <mxCell id="r3CQyimWaxTI8VOWc62i-4" value="pc_next" style="edgeLabel;html=1;align=center;verticalAlign=middle;resizable=0;points=[];" parent="7AGCUOTx4ptlF9nV3zEV-38" vertex="1" connectable="0">
          <mxGeometry x="-0.1983" y="-1" relative="1" as="geometry">
            <mxPoint x="8" y="14" as="offset" />
          </mxGeometry>
        </mxCell>
        <mxCell id="7AGCUOTx4ptlF9nV3zEV-5" value="mux&lt;br&gt;" style="rounded=1;whiteSpace=wrap;html=1;" parent="1" vertex="1">
          <mxGeometry x="-92.96000000000001" y="564.96" width="30" height="50" as="geometry" />
        </mxCell>
        <mxCell id="7AGCUOTx4ptlF9nV3zEV-48" style="edgeStyle=orthogonalEdgeStyle;rounded=0;orthogonalLoop=1;jettySize=auto;html=1;exitX=0.5;exitY=0;exitDx=0;exitDy=0;entryX=0;entryY=0.75;entryDx=0;entryDy=0;" parent="1" source="7AGCUOTx4ptlF9nV3zEV-7" target="7AGCUOTx4ptlF9nV3zEV-5" edge="1">
          <mxGeometry relative="1" as="geometry">
            <Array as="points">
              <mxPoint x="360" y="431" />
              <mxPoint x="360" y="361" />
              <mxPoint x="-110" y="361" />
              <mxPoint x="-110" y="602" />
            </Array>
            <mxPoint x="112.03999999999999" y="431.13" as="sourcePoint" />
            <mxPoint x="-117.96000000000004" y="603.63" as="targetPoint" />
          </mxGeometry>
        </mxCell>
        <mxCell id="7AGCUOTx4ptlF9nV3zEV-7" value="+&lt;br&gt;" style="shape=trapezoid;perimeter=trapezoidPerimeter;whiteSpace=wrap;html=1;fixedSize=1;direction=south;" parent="1" vertex="1">
          <mxGeometry x="305" y="390" width="30" height="80" as="geometry" />
        </mxCell>
        <mxCell id="7AGCUOTx4ptlF9nV3zEV-8" value="IF/ID&lt;br&gt;" style="rounded=0;whiteSpace=wrap;html=1;overflow=visible;" parent="1" vertex="1">
          <mxGeometry x="420" y="470" width="40" height="400" as="geometry" />
        </mxCell>
        <mxCell id="7AGCUOTx4ptlF9nV3zEV-9" value="ID/EX" style="rounded=0;whiteSpace=wrap;html=1;overflow=visible;" parent="1" vertex="1">
          <mxGeometry x="930" y="460" width="40" height="400" as="geometry" />
        </mxCell>
        <mxCell id="7AGCUOTx4ptlF9nV3zEV-10" value="EX/MEM&lt;br&gt;" style="rounded=0;whiteSpace=wrap;html=1;overflow=visible;" parent="1" vertex="1">
          <mxGeometry x="1290" y="460" width="40" height="400" as="geometry" />
        </mxCell>
        <mxCell id="7AGCUOTx4ptlF9nV3zEV-11" value="MEM/WB&lt;br&gt;" style="rounded=0;whiteSpace=wrap;html=1;overflow=visible;" parent="1" vertex="1">
          <mxGeometry x="1570" y="460" width="40" height="400" as="geometry" />
        </mxCell>
        <mxCell id="7AGCUOTx4ptlF9nV3zEV-109" style="edgeStyle=orthogonalEdgeStyle;rounded=0;orthogonalLoop=1;jettySize=auto;html=1;exitDx=0;exitDy=0;entryX=0;entryY=0.25;entryDx=0;entryDy=0;" parent="1" target="7AGCUOTx4ptlF9nV3zEV-12" edge="1">
          <mxGeometry relative="1" as="geometry">
            <mxPoint x="500" y="580" as="sourcePoint" />
          </mxGeometry>
        </mxCell>
        <mxCell id="7AGCUOTx4ptlF9nV3zEV-12" value="Registers&lt;br&gt;" style="rounded=0;whiteSpace=wrap;html=1;" parent="1" vertex="1">
          <mxGeometry x="680" y="550" width="80" height="120" as="geometry" />
        </mxCell>
        <mxCell id="7AGCUOTx4ptlF9nV3zEV-50" style="edgeStyle=orthogonalEdgeStyle;rounded=0;orthogonalLoop=1;jettySize=auto;html=1;exitX=1;exitY=0.05;exitDx=0;exitDy=0;entryX=0.75;entryY=1;entryDx=0;entryDy=0;exitPerimeter=0;" parent="1" source="7AGCUOTx4ptlF9nV3zEV-8" target="7AGCUOTx4ptlF9nV3zEV-14" edge="1">
          <mxGeometry relative="1" as="geometry">
            <mxPoint x="470" y="469.9999999999999" as="sourcePoint" />
          </mxGeometry>
        </mxCell>
        <mxCell id="iRF73-ydp--cM6KkQBau-7" value="pc" style="edgeLabel;html=1;align=center;verticalAlign=middle;resizable=0;points=[];" parent="7AGCUOTx4ptlF9nV3zEV-50" vertex="1" connectable="0">
          <mxGeometry x="-0.2979" y="-1" relative="1" as="geometry">
            <mxPoint as="offset" />
          </mxGeometry>
        </mxCell>
        <mxCell id="7AGCUOTx4ptlF9nV3zEV-58" style="edgeStyle=orthogonalEdgeStyle;rounded=0;orthogonalLoop=1;jettySize=auto;html=1;exitX=0.5;exitY=0;exitDx=0;exitDy=0;entryX=0;entryY=0.25;entryDx=0;entryDy=0;" parent="1" source="7AGCUOTx4ptlF9nV3zEV-14" target="7AGCUOTx4ptlF9nV3zEV-5" edge="1">
          <mxGeometry relative="1" as="geometry">
            <Array as="points">
              <mxPoint x="730" y="440" />
              <mxPoint x="730" y="300" />
              <mxPoint x="-140" y="300" />
              <mxPoint x="-140" y="578" />
            </Array>
          </mxGeometry>
        </mxCell>
        <mxCell id="r3CQyimWaxTI8VOWc62i-2" value="pc_branch" style="edgeLabel;html=1;align=center;verticalAlign=middle;resizable=0;points=[];" parent="7AGCUOTx4ptlF9nV3zEV-58" vertex="1" connectable="0">
          <mxGeometry x="0.5747" y="-2" relative="1" as="geometry">
            <mxPoint as="offset" />
          </mxGeometry>
        </mxCell>
        <mxCell id="7AGCUOTx4ptlF9nV3zEV-14" value="+&lt;br&gt;" style="shape=trapezoid;perimeter=trapezoidPerimeter;whiteSpace=wrap;html=1;fixedSize=1;direction=south;" parent="1" vertex="1">
          <mxGeometry x="680" y="400" width="30" height="80" as="geometry" />
        </mxCell>
        <mxCell id="7AGCUOTx4ptlF9nV3zEV-112" style="edgeStyle=orthogonalEdgeStyle;rounded=0;orthogonalLoop=1;jettySize=auto;html=1;exitDx=0;exitDy=0;entryX=0;entryY=0.5;entryDx=0;entryDy=0;" parent="1" target="7AGCUOTx4ptlF9nV3zEV-16" edge="1">
          <mxGeometry relative="1" as="geometry">
            <mxPoint x="460" y="750" as="sourcePoint" />
            <Array as="points">
              <mxPoint x="540" y="750" />
              <mxPoint x="540" y="750" />
            </Array>
          </mxGeometry>
        </mxCell>
        <mxCell id="7AGCUOTx4ptlF9nV3zEV-16" value="Imm Gen" style="ellipse;whiteSpace=wrap;html=1;" parent="1" vertex="1">
          <mxGeometry x="600" y="710" width="40" height="80" as="geometry" />
        </mxCell>
        <mxCell id="7AGCUOTx4ptlF9nV3zEV-51" style="edgeStyle=orthogonalEdgeStyle;rounded=0;orthogonalLoop=1;jettySize=auto;html=1;exitX=0.5;exitY=0;exitDx=0;exitDy=0;entryX=0.25;entryY=1;entryDx=0;entryDy=0;" parent="1" source="7AGCUOTx4ptlF9nV3zEV-17" target="7AGCUOTx4ptlF9nV3zEV-14" edge="1">
          <mxGeometry relative="1" as="geometry" />
        </mxCell>
        <mxCell id="iRF73-ydp--cM6KkQBau-10" value="&lt;div&gt;imm_shifted&lt;/div&gt;" style="edgeLabel;html=1;align=center;verticalAlign=middle;resizable=0;points=[];" parent="7AGCUOTx4ptlF9nV3zEV-51" vertex="1" connectable="0">
          <mxGeometry x="0.4824" y="-1" relative="1" as="geometry">
            <mxPoint x="-3" y="-11" as="offset" />
          </mxGeometry>
        </mxCell>
        <mxCell id="7AGCUOTx4ptlF9nV3zEV-53" style="edgeStyle=orthogonalEdgeStyle;rounded=0;orthogonalLoop=1;jettySize=auto;html=1;exitX=0.5;exitY=1;exitDx=0;exitDy=0;entryX=0.5;entryY=1;entryDx=0;entryDy=0;" parent="1" target="7AGCUOTx4ptlF9nV3zEV-17" edge="1">
          <mxGeometry relative="1" as="geometry">
            <mxPoint x="650" y="750" as="sourcePoint" />
            <Array as="points">
              <mxPoint x="650" y="690" />
              <mxPoint x="615" y="690" />
            </Array>
          </mxGeometry>
        </mxCell>
        <mxCell id="7AGCUOTx4ptlF9nV3zEV-17" value="Shift Left 1" style="ellipse;whiteSpace=wrap;html=1;" parent="1" vertex="1">
          <mxGeometry x="600" y="500" width="30" height="60" as="geometry" />
        </mxCell>
        <mxCell id="7AGCUOTx4ptlF9nV3zEV-56" style="edgeStyle=orthogonalEdgeStyle;rounded=0;orthogonalLoop=1;jettySize=auto;html=1;exitX=0.5;exitY=0;exitDx=0;exitDy=0;entryX=0.5;entryY=0;entryDx=0;entryDy=0;" parent="1" target="7AGCUOTx4ptlF9nV3zEV-18" edge="1">
          <mxGeometry relative="1" as="geometry">
            <mxPoint x="795.0679611650485" y="560" as="sourcePoint" />
          </mxGeometry>
        </mxCell>
        <mxCell id="7AGCUOTx4ptlF9nV3zEV-57" style="edgeStyle=orthogonalEdgeStyle;rounded=0;orthogonalLoop=1;jettySize=auto;html=1;exitX=0.5;exitY=1;exitDx=0;exitDy=0;entryX=0.5;entryY=1;entryDx=0;entryDy=0;" parent="1" target="7AGCUOTx4ptlF9nV3zEV-18" edge="1">
          <mxGeometry relative="1" as="geometry">
            <mxPoint x="795.0679611650485" y="660" as="sourcePoint" />
          </mxGeometry>
        </mxCell>
        <mxCell id="7AGCUOTx4ptlF9nV3zEV-18" value="=" style="ellipse;whiteSpace=wrap;html=1;" parent="1" vertex="1">
          <mxGeometry x="780" y="580" width="30" height="60" as="geometry" />
        </mxCell>
        <mxCell id="WGRCAQS2CZB4Ie9VM8L0-8" style="edgeStyle=orthogonalEdgeStyle;rounded=0;orthogonalLoop=1;jettySize=auto;html=1;exitX=0;exitY=0.75;exitDx=0;exitDy=0;entryX=0;entryY=0.75;entryDx=0;entryDy=0;fillColor=#0050ef;strokeColor=#001DBC;" parent="1" target="7AGCUOTx4ptlF9nV3zEV-19" edge="1">
          <mxGeometry relative="1" as="geometry">
            <mxPoint x="750" y="377.3636363636364" as="sourcePoint" />
          </mxGeometry>
        </mxCell>
        <mxCell id="WGRCAQS2CZB4Ie9VM8L0-9" value="0&lt;br&gt;" style="edgeLabel;html=1;align=center;verticalAlign=middle;resizable=0;points=[];" parent="WGRCAQS2CZB4Ie9VM8L0-8" vertex="1" connectable="0">
          <mxGeometry x="-0.7003" y="-1" relative="1" as="geometry">
            <mxPoint x="-8" y="-1" as="offset" />
          </mxGeometry>
        </mxCell>
        <mxCell id="WGRCAQS2CZB4Ie9VM8L0-11" style="edgeStyle=orthogonalEdgeStyle;rounded=0;orthogonalLoop=1;jettySize=auto;html=1;exitX=1;exitY=0.5;exitDx=0;exitDy=0;entryX=0;entryY=0.5;entryDx=0;entryDy=0;fillColor=#0050ef;strokeColor=#001DBC;" parent="1" source="7AGCUOTx4ptlF9nV3zEV-19" target="7AGCUOTx4ptlF9nV3zEV-32" edge="1">
          <mxGeometry relative="1" as="geometry" />
        </mxCell>
        <mxCell id="WGRCAQS2CZB4Ie9VM8L0-12" style="edgeStyle=orthogonalEdgeStyle;rounded=0;orthogonalLoop=1;jettySize=auto;html=1;exitX=1;exitY=0.5;exitDx=0;exitDy=0;entryX=0;entryY=0.5;entryDx=0;entryDy=0;fillColor=#0050ef;strokeColor=#001DBC;" parent="1" source="7AGCUOTx4ptlF9nV3zEV-19" target="7AGCUOTx4ptlF9nV3zEV-31" edge="1">
          <mxGeometry relative="1" as="geometry" />
        </mxCell>
        <mxCell id="WGRCAQS2CZB4Ie9VM8L0-13" style="edgeStyle=orthogonalEdgeStyle;rounded=0;orthogonalLoop=1;jettySize=auto;html=1;exitX=1;exitY=0.5;exitDx=0;exitDy=0;entryX=0;entryY=0.5;entryDx=0;entryDy=0;fillColor=#0050ef;strokeColor=#001DBC;" parent="1" source="7AGCUOTx4ptlF9nV3zEV-19" target="7AGCUOTx4ptlF9nV3zEV-30" edge="1">
          <mxGeometry relative="1" as="geometry" />
        </mxCell>
        <mxCell id="7AGCUOTx4ptlF9nV3zEV-19" value="mux&lt;br&gt;" style="rounded=1;whiteSpace=wrap;html=1;fillColor=#0050ef;fontColor=#ffffff;strokeColor=#001DBC;" parent="1" vertex="1">
          <mxGeometry x="770" y="340" width="30" height="50" as="geometry" />
        </mxCell>
        <mxCell id="7AGCUOTx4ptlF9nV3zEV-138" style="edgeStyle=orthogonalEdgeStyle;rounded=0;orthogonalLoop=1;jettySize=auto;html=1;exitX=0;exitY=0.25;exitDx=0;exitDy=0;entryX=0;entryY=0.25;entryDx=0;entryDy=0;" parent="1" target="7AGCUOTx4ptlF9nV3zEV-21" edge="1">
          <mxGeometry relative="1" as="geometry">
            <mxPoint x="970" y="542.5942028985506" as="sourcePoint" />
            <Array as="points">
              <mxPoint x="1015" y="543" />
            </Array>
          </mxGeometry>
        </mxCell>
        <mxCell id="sZSkLrOZnHPghDmqJCr5-6" value="data1" style="edgeLabel;html=1;align=center;verticalAlign=middle;resizable=0;points=[];" parent="7AGCUOTx4ptlF9nV3zEV-138" vertex="1" connectable="0">
          <mxGeometry x="-0.0812" y="-1" relative="1" as="geometry">
            <mxPoint as="offset" />
          </mxGeometry>
        </mxCell>
        <mxCell id="7AGCUOTx4ptlF9nV3zEV-21" value="mux&lt;br&gt;" style="rounded=1;whiteSpace=wrap;html=1;" parent="1" vertex="1">
          <mxGeometry x="1060" y="530" width="30" height="50" as="geometry" />
        </mxCell>
        <mxCell id="7AGCUOTx4ptlF9nV3zEV-133" style="edgeStyle=orthogonalEdgeStyle;rounded=0;orthogonalLoop=1;jettySize=auto;html=1;exitX=1;exitY=0.5;exitDx=0;exitDy=0;entryX=0;entryY=0.25;entryDx=0;entryDy=0;" parent="1" source="7AGCUOTx4ptlF9nV3zEV-22" target="7AGCUOTx4ptlF9nV3zEV-26" edge="1">
          <mxGeometry relative="1" as="geometry">
            <Array as="points">
              <mxPoint x="1120" y="635" />
              <mxPoint x="1120" y="622" />
            </Array>
          </mxGeometry>
        </mxCell>
        <mxCell id="7AGCUOTx4ptlF9nV3zEV-139" style="edgeStyle=orthogonalEdgeStyle;rounded=0;orthogonalLoop=1;jettySize=auto;html=1;exitX=0;exitY=0.25;exitDx=0;exitDy=0;entryX=0;entryY=0.25;entryDx=0;entryDy=0;" parent="1" edge="1">
          <mxGeometry relative="1" as="geometry">
            <mxPoint x="1060" y="620.5" as="targetPoint" />
            <mxPoint x="970" y="620.5942028985506" as="sourcePoint" />
            <Array as="points">
              <mxPoint x="1015" y="620" />
              <mxPoint x="1015" y="620" />
            </Array>
          </mxGeometry>
        </mxCell>
        <mxCell id="sZSkLrOZnHPghDmqJCr5-7" value="data2" style="edgeLabel;html=1;align=center;verticalAlign=middle;resizable=0;points=[];" parent="7AGCUOTx4ptlF9nV3zEV-139" vertex="1" connectable="0">
          <mxGeometry x="-0.6177" y="2" relative="1" as="geometry">
            <mxPoint as="offset" />
          </mxGeometry>
        </mxCell>
        <mxCell id="7AGCUOTx4ptlF9nV3zEV-183" style="edgeStyle=orthogonalEdgeStyle;rounded=0;orthogonalLoop=1;jettySize=auto;html=1;entryX=0;entryY=0.75;entryDx=0;entryDy=0;" parent="1" target="7AGCUOTx4ptlF9nV3zEV-22" edge="1">
          <mxGeometry relative="1" as="geometry">
            <mxPoint x="1020" y="650" as="sourcePoint" />
            <Array as="points">
              <mxPoint x="1020" y="647" />
            </Array>
          </mxGeometry>
        </mxCell>
        <mxCell id="7AGCUOTx4ptlF9nV3zEV-186" style="edgeStyle=orthogonalEdgeStyle;rounded=0;orthogonalLoop=1;jettySize=auto;html=1;exitX=0;exitY=0.5;exitDx=0;exitDy=0;entryX=0;entryY=0.5;entryDx=0;entryDy=0;" parent="1" target="7AGCUOTx4ptlF9nV3zEV-22" edge="1">
          <mxGeometry relative="1" as="geometry">
            <mxPoint x="1040" y="635" as="sourcePoint" />
          </mxGeometry>
        </mxCell>
        <mxCell id="2nhumJkl5wTfImcDvtph-59" style="edgeStyle=orthogonalEdgeStyle;rounded=0;orthogonalLoop=1;jettySize=auto;html=1;exitX=1;exitY=0.5;exitDx=0;exitDy=0;entryX=0;entryY=0.5;entryDx=0;entryDy=0;" parent="1" source="7AGCUOTx4ptlF9nV3zEV-22" target="7AGCUOTx4ptlF9nV3zEV-10" edge="1">
          <mxGeometry relative="1" as="geometry">
            <Array as="points">
              <mxPoint x="1120" y="635" />
              <mxPoint x="1120" y="670" />
              <mxPoint x="1290" y="670" />
            </Array>
          </mxGeometry>
        </mxCell>
        <mxCell id="7AGCUOTx4ptlF9nV3zEV-22" value="mux&lt;br&gt;" style="rounded=1;whiteSpace=wrap;html=1;" parent="1" vertex="1">
          <mxGeometry x="1060" y="610" width="30" height="50" as="geometry" />
        </mxCell>
        <mxCell id="7AGCUOTx4ptlF9nV3zEV-140" style="edgeStyle=orthogonalEdgeStyle;rounded=0;orthogonalLoop=1;jettySize=auto;html=1;exitX=1;exitY=0.5;exitDx=0;exitDy=0;entryX=0.25;entryY=1;entryDx=0;entryDy=0;" parent="1" source="7AGCUOTx4ptlF9nV3zEV-21" target="7AGCUOTx4ptlF9nV3zEV-23" edge="1">
          <mxGeometry relative="1" as="geometry" />
        </mxCell>
        <mxCell id="2nhumJkl5wTfImcDvtph-5" value="left_operand" style="edgeLabel;html=1;align=center;verticalAlign=middle;resizable=0;points=[];" parent="7AGCUOTx4ptlF9nV3zEV-140" vertex="1" connectable="0">
          <mxGeometry x="-0.5201" y="-1" relative="1" as="geometry">
            <mxPoint x="13" y="-11" as="offset" />
          </mxGeometry>
        </mxCell>
        <mxCell id="7AGCUOTx4ptlF9nV3zEV-23" value="ALU&lt;br&gt;" style="shape=trapezoid;perimeter=trapezoidPerimeter;whiteSpace=wrap;html=1;fixedSize=1;direction=south;" parent="1" vertex="1">
          <mxGeometry x="1190" y="535" width="60" height="130" as="geometry" />
        </mxCell>
        <mxCell id="7AGCUOTx4ptlF9nV3zEV-24" value="Data Memory&lt;br&gt;" style="rounded=0;whiteSpace=wrap;html=1;" parent="1" vertex="1">
          <mxGeometry x="1410" y="540" width="80" height="120" as="geometry" />
        </mxCell>
        <mxCell id="7AGCUOTx4ptlF9nV3zEV-185" style="edgeStyle=orthogonalEdgeStyle;rounded=0;orthogonalLoop=1;jettySize=auto;html=1;entryX=0;entryY=0.5;entryDx=0;entryDy=0;" parent="1" target="7AGCUOTx4ptlF9nV3zEV-21" edge="1">
          <mxGeometry relative="1" as="geometry">
            <Array as="points">
              <mxPoint x="1040" y="555" />
            </Array>
            <mxPoint x="1040" y="920" as="sourcePoint" />
          </mxGeometry>
        </mxCell>
        <mxCell id="7AGCUOTx4ptlF9nV3zEV-25" value="mux&lt;br&gt;" style="rounded=1;whiteSpace=wrap;html=1;" parent="1" vertex="1">
          <mxGeometry x="1660" y="635" width="30" height="50" as="geometry" />
        </mxCell>
        <mxCell id="7AGCUOTx4ptlF9nV3zEV-141" style="edgeStyle=orthogonalEdgeStyle;rounded=0;orthogonalLoop=1;jettySize=auto;html=1;exitX=1;exitY=0.5;exitDx=0;exitDy=0;" parent="1" source="7AGCUOTx4ptlF9nV3zEV-26" edge="1">
          <mxGeometry relative="1" as="geometry">
            <mxPoint x="1190" y="628" as="targetPoint" />
            <Array as="points">
              <mxPoint x="1170" y="635" />
              <mxPoint x="1170" y="628" />
            </Array>
          </mxGeometry>
        </mxCell>
        <mxCell id="WGRCAQS2CZB4Ie9VM8L0-26" style="edgeStyle=orthogonalEdgeStyle;rounded=0;orthogonalLoop=1;jettySize=auto;html=1;exitX=1;exitY=0.5;exitDx=0;exitDy=0;fillColor=#0050ef;strokeColor=#001DBC;entryX=0.5;entryY=0;entryDx=0;entryDy=0;" parent="1" source="7AGCUOTx4ptlF9nV3zEV-30" target="7AGCUOTx4ptlF9nV3zEV-26" edge="1">
          <mxGeometry relative="1" as="geometry">
            <mxPoint x="1145" y="500" as="sourcePoint" />
            <Array as="points">
              <mxPoint x="1050" y="420" />
              <mxPoint x="1050" y="470" />
              <mxPoint x="1155" y="470" />
            </Array>
          </mxGeometry>
        </mxCell>
        <mxCell id="WGRCAQS2CZB4Ie9VM8L0-27" value="ALUSrc" style="edgeLabel;html=1;align=center;verticalAlign=middle;resizable=0;points=[];" parent="WGRCAQS2CZB4Ie9VM8L0-26" vertex="1" connectable="0">
          <mxGeometry x="-0.3689" y="1" relative="1" as="geometry">
            <mxPoint x="49" y="2" as="offset" />
          </mxGeometry>
        </mxCell>
        <mxCell id="WGRCAQS2CZB4Ie9VM8L0-7" style="edgeStyle=orthogonalEdgeStyle;rounded=0;orthogonalLoop=1;jettySize=auto;html=1;exitX=1;exitY=0.5;exitDx=0;exitDy=0;entryX=0;entryY=0.5;entryDx=0;entryDy=0;fillColor=#0050ef;strokeColor=#001DBC;" parent="1" source="7AGCUOTx4ptlF9nV3zEV-28" target="7AGCUOTx4ptlF9nV3zEV-19" edge="1">
          <mxGeometry relative="1" as="geometry" />
        </mxCell>
        <mxCell id="iRF73-ydp--cM6KkQBau-24" value="control" style="edgeLabel;html=1;align=center;verticalAlign=middle;resizable=0;points=[];" parent="WGRCAQS2CZB4Ie9VM8L0-7" vertex="1" connectable="0">
          <mxGeometry x="-0.4176" relative="1" as="geometry">
            <mxPoint x="4" y="-10" as="offset" />
          </mxGeometry>
        </mxCell>
        <mxCell id="7AGCUOTx4ptlF9nV3zEV-28" value="Control&lt;br&gt;" style="ellipse;whiteSpace=wrap;html=1;fillColor=#0050ef;fontColor=#ffffff;strokeColor=#001DBC;" parent="1" vertex="1">
          <mxGeometry x="540" y="305" width="70" height="120" as="geometry" />
        </mxCell>
        <mxCell id="7AGCUOTx4ptlF9nV3zEV-30" value="EX" style="rounded=0;whiteSpace=wrap;html=1;fillColor=#0050ef;fontColor=#ffffff;strokeColor=#001DBC;" parent="1" vertex="1">
          <mxGeometry x="930" y="380" width="40" height="80" as="geometry" />
        </mxCell>
        <mxCell id="WGRCAQS2CZB4Ie9VM8L0-15" style="edgeStyle=orthogonalEdgeStyle;rounded=0;orthogonalLoop=1;jettySize=auto;html=1;exitX=1;exitY=0.5;exitDx=0;exitDy=0;entryX=0;entryY=0.5;entryDx=0;entryDy=0;fillColor=#0050ef;strokeColor=#001DBC;" parent="1" source="7AGCUOTx4ptlF9nV3zEV-31" target="7AGCUOTx4ptlF9nV3zEV-33" edge="1">
          <mxGeometry relative="1" as="geometry">
            <Array as="points">
              <mxPoint x="1150" y="340" />
              <mxPoint x="1150" y="420" />
            </Array>
          </mxGeometry>
        </mxCell>
        <mxCell id="7AGCUOTx4ptlF9nV3zEV-31" value="M" style="rounded=0;whiteSpace=wrap;html=1;fillColor=#0050ef;fontColor=#ffffff;strokeColor=#001DBC;" parent="1" vertex="1">
          <mxGeometry x="930" y="300" width="40" height="80" as="geometry" />
        </mxCell>
        <mxCell id="WGRCAQS2CZB4Ie9VM8L0-17" style="edgeStyle=orthogonalEdgeStyle;rounded=0;orthogonalLoop=1;jettySize=auto;html=1;exitX=1;exitY=0.5;exitDx=0;exitDy=0;entryX=0;entryY=0.5;entryDx=0;entryDy=0;fillColor=#0050ef;strokeColor=#001DBC;" parent="1" source="7AGCUOTx4ptlF9nV3zEV-32" target="7AGCUOTx4ptlF9nV3zEV-34" edge="1">
          <mxGeometry relative="1" as="geometry">
            <Array as="points">
              <mxPoint x="1180" y="260" />
              <mxPoint x="1180" y="340" />
            </Array>
          </mxGeometry>
        </mxCell>
        <mxCell id="7AGCUOTx4ptlF9nV3zEV-32" value="WB&lt;br&gt;" style="rounded=0;whiteSpace=wrap;html=1;fillColor=#0050ef;fontColor=#ffffff;strokeColor=#001DBC;" parent="1" vertex="1">
          <mxGeometry x="930" y="220" width="40" height="80" as="geometry" />
        </mxCell>
        <mxCell id="WGRCAQS2CZB4Ie9VM8L0-43" style="edgeStyle=orthogonalEdgeStyle;rounded=0;orthogonalLoop=1;jettySize=auto;html=1;exitX=1;exitY=0.75;exitDx=0;exitDy=0;fillColor=#0050ef;strokeColor=#001DBC;" parent="1" source="7AGCUOTx4ptlF9nV3zEV-33" edge="1">
          <mxGeometry relative="1" as="geometry">
            <mxPoint x="1430" y="540" as="targetPoint" />
            <Array as="points">
              <mxPoint x="1430" y="440" />
              <mxPoint x="1430" y="540" />
            </Array>
          </mxGeometry>
        </mxCell>
        <mxCell id="WGRCAQS2CZB4Ie9VM8L0-45" style="edgeStyle=orthogonalEdgeStyle;rounded=0;orthogonalLoop=1;jettySize=auto;html=1;exitX=1;exitY=0.5;exitDx=0;exitDy=0;entryX=0.75;entryY=0;entryDx=0;entryDy=0;fillColor=#0050ef;strokeColor=#001DBC;" parent="1" source="7AGCUOTx4ptlF9nV3zEV-33" target="7AGCUOTx4ptlF9nV3zEV-24" edge="1">
          <mxGeometry relative="1" as="geometry">
            <Array as="points">
              <mxPoint x="1330" y="430" />
              <mxPoint x="1470" y="430" />
            </Array>
          </mxGeometry>
        </mxCell>
        <mxCell id="WGRCAQS2CZB4Ie9VM8L0-46" value="MemRead" style="edgeLabel;html=1;align=center;verticalAlign=middle;resizable=0;points=[];" parent="WGRCAQS2CZB4Ie9VM8L0-45" vertex="1" connectable="0">
          <mxGeometry x="0.7701" y="-1" relative="1" as="geometry">
            <mxPoint x="10" y="-7" as="offset" />
          </mxGeometry>
        </mxCell>
        <mxCell id="7AGCUOTx4ptlF9nV3zEV-33" value="M" style="rounded=0;whiteSpace=wrap;html=1;fillColor=#0050ef;fontColor=#ffffff;strokeColor=#001DBC;" parent="1" vertex="1">
          <mxGeometry x="1290" y="380" width="40" height="80" as="geometry" />
        </mxCell>
        <mxCell id="WGRCAQS2CZB4Ie9VM8L0-20" style="edgeStyle=orthogonalEdgeStyle;rounded=0;orthogonalLoop=1;jettySize=auto;html=1;exitX=1;exitY=0.5;exitDx=0;exitDy=0;entryX=0;entryY=0.5;entryDx=0;entryDy=0;fillColor=#0050ef;strokeColor=#001DBC;" parent="1" source="7AGCUOTx4ptlF9nV3zEV-34" target="7AGCUOTx4ptlF9nV3zEV-35" edge="1">
          <mxGeometry relative="1" as="geometry" />
        </mxCell>
        <mxCell id="7AGCUOTx4ptlF9nV3zEV-34" value="WB&lt;br&gt;" style="rounded=0;whiteSpace=wrap;html=1;fillColor=#0050ef;fontColor=#ffffff;strokeColor=#001DBC;" parent="1" vertex="1">
          <mxGeometry x="1290" y="300" width="40" height="80" as="geometry" />
        </mxCell>
        <mxCell id="WGRCAQS2CZB4Ie9VM8L0-47" style="edgeStyle=orthogonalEdgeStyle;rounded=0;orthogonalLoop=1;jettySize=auto;html=1;exitX=1;exitY=0.75;exitDx=0;exitDy=0;entryX=0.5;entryY=0;entryDx=0;entryDy=0;fillColor=#0050ef;strokeColor=#001DBC;" parent="1" source="7AGCUOTx4ptlF9nV3zEV-35" target="7AGCUOTx4ptlF9nV3zEV-25" edge="1">
          <mxGeometry relative="1" as="geometry" />
        </mxCell>
        <mxCell id="WGRCAQS2CZB4Ie9VM8L0-48" value="MemtoReg&lt;br&gt;" style="edgeLabel;html=1;align=center;verticalAlign=middle;resizable=0;points=[];" parent="WGRCAQS2CZB4Ie9VM8L0-47" vertex="1" connectable="0">
          <mxGeometry x="0.0509" y="-2" relative="1" as="geometry">
            <mxPoint x="2" y="24" as="offset" />
          </mxGeometry>
        </mxCell>
        <mxCell id="7AGCUOTx4ptlF9nV3zEV-35" value="WB&lt;br&gt;" style="rounded=0;whiteSpace=wrap;html=1;fillColor=#0050ef;fontColor=#ffffff;strokeColor=#001DBC;" parent="1" vertex="1">
          <mxGeometry x="1570" y="380" width="40" height="80" as="geometry" />
        </mxCell>
        <mxCell id="7AGCUOTx4ptlF9nV3zEV-52" style="edgeStyle=orthogonalEdgeStyle;rounded=0;orthogonalLoop=1;jettySize=auto;html=1;exitDx=0;exitDy=0;anchorPointDirection=1;snapToPoint=0;entryX=-0.028;entryY=0.726;entryDx=0;entryDy=0;entryPerimeter=0;" parent="1" target="7AGCUOTx4ptlF9nV3zEV-9" edge="1">
          <mxGeometry relative="1" as="geometry">
            <mxPoint x="650" y="750" as="sourcePoint" />
            <mxPoint x="840" y="750" as="targetPoint" />
          </mxGeometry>
        </mxCell>
        <mxCell id="iRF73-ydp--cM6KkQBau-6" value="&lt;div&gt;imm&lt;/div&gt;" style="edgeLabel;html=1;align=center;verticalAlign=middle;resizable=0;points=[];" parent="7AGCUOTx4ptlF9nV3zEV-52" vertex="1" connectable="0">
          <mxGeometry x="-0.3981" y="-2" relative="1" as="geometry">
            <mxPoint x="3" y="-12" as="offset" />
          </mxGeometry>
        </mxCell>
        <mxCell id="7AGCUOTx4ptlF9nV3zEV-54" value="" style="endArrow=classic;html=1;rounded=0;exitX=1;exitY=0.917;exitDx=0;exitDy=0;exitPerimeter=0;entryX=-0.03;entryY=0.146;entryDx=0;entryDy=0;entryPerimeter=0;" parent="1" source="7AGCUOTx4ptlF9nV3zEV-12" target="BDfC4eA5wMOMeH6UXcKp-4" edge="1">
          <mxGeometry width="50" height="50" relative="1" as="geometry">
            <mxPoint x="780" y="670" as="sourcePoint" />
            <mxPoint x="840" y="660" as="targetPoint" />
          </mxGeometry>
        </mxCell>
        <mxCell id="iRF73-ydp--cM6KkQBau-9" value="&lt;div&gt;data2&lt;/div&gt;" style="edgeLabel;html=1;align=center;verticalAlign=middle;resizable=0;points=[];" parent="7AGCUOTx4ptlF9nV3zEV-54" vertex="1" connectable="0">
          <mxGeometry x="0.3265" y="2" relative="1" as="geometry">
            <mxPoint x="24" y="-13" as="offset" />
          </mxGeometry>
        </mxCell>
        <mxCell id="7AGCUOTx4ptlF9nV3zEV-55" value="" style="endArrow=classic;html=1;rounded=0;exitX=1;exitY=0.917;exitDx=0;exitDy=0;exitPerimeter=0;entryX=0.012;entryY=0.154;entryDx=0;entryDy=0;entryPerimeter=0;" parent="1" target="BDfC4eA5wMOMeH6UXcKp-3" edge="1">
          <mxGeometry width="50" height="50" relative="1" as="geometry">
            <mxPoint x="760" y="560" as="sourcePoint" />
            <mxPoint x="840" y="560" as="targetPoint" />
          </mxGeometry>
        </mxCell>
        <mxCell id="iRF73-ydp--cM6KkQBau-8" value="&lt;div&gt;data1&lt;/div&gt;" style="edgeLabel;html=1;align=center;verticalAlign=middle;resizable=0;points=[];" parent="7AGCUOTx4ptlF9nV3zEV-55" vertex="1" connectable="0">
          <mxGeometry x="0.3412" relative="1" as="geometry">
            <mxPoint x="-4" y="-10" as="offset" />
          </mxGeometry>
        </mxCell>
        <mxCell id="7AGCUOTx4ptlF9nV3zEV-110" style="edgeStyle=orthogonalEdgeStyle;rounded=0;orthogonalLoop=1;jettySize=auto;html=1;exitX=0.988;exitY=0.313;exitDx=0;exitDy=0;entryX=0;entryY=0.25;entryDx=0;entryDy=0;exitPerimeter=0;" parent="1" source="7AGCUOTx4ptlF9nV3zEV-8" edge="1">
          <mxGeometry relative="1" as="geometry">
            <mxPoint x="680" y="595" as="targetPoint" />
            <mxPoint x="480" y="595" as="sourcePoint" />
          </mxGeometry>
        </mxCell>
        <mxCell id="7AGCUOTx4ptlF9nV3zEV-126" value="" style="edgeStyle=orthogonalEdgeStyle;rounded=0;orthogonalLoop=1;jettySize=auto;html=1;exitX=1;exitY=0.5;exitDx=0;exitDy=0;anchorPointDirection=1;snapToPoint=0;endArrow=none;endFill=0;" parent="1" source="7AGCUOTx4ptlF9nV3zEV-16" edge="1">
          <mxGeometry relative="1" as="geometry">
            <mxPoint x="640" y="750" as="sourcePoint" />
            <mxPoint x="650" y="750" as="targetPoint" />
          </mxGeometry>
        </mxCell>
        <mxCell id="7AGCUOTx4ptlF9nV3zEV-127" value="" style="shape=waypoint;sketch=0;fillStyle=solid;size=6;pointerEvents=1;points=[];fillColor=none;resizable=0;rotatable=0;perimeter=centerPerimeter;snapToPoint=1;" parent="1" vertex="1">
          <mxGeometry x="640" y="740" width="20" height="20" as="geometry" />
        </mxCell>
        <mxCell id="7AGCUOTx4ptlF9nV3zEV-128" value="" style="shape=waypoint;sketch=0;fillStyle=solid;size=6;pointerEvents=1;points=[];fillColor=none;resizable=0;rotatable=0;perimeter=centerPerimeter;snapToPoint=1;" parent="1" vertex="1">
          <mxGeometry x="17.04" y="579.13" width="20" height="20" as="geometry" />
        </mxCell>
        <mxCell id="7AGCUOTx4ptlF9nV3zEV-129" value="" style="shape=waypoint;sketch=0;fillStyle=solid;size=6;pointerEvents=1;points=[];fillColor=none;resizable=0;rotatable=0;perimeter=centerPerimeter;snapToPoint=1;" parent="1" vertex="1">
          <mxGeometry x="785" y="650" width="20" height="20" as="geometry" />
        </mxCell>
        <mxCell id="7AGCUOTx4ptlF9nV3zEV-130" value="" style="shape=waypoint;sketch=0;fillStyle=solid;size=6;pointerEvents=1;points=[];fillColor=none;resizable=0;rotatable=0;perimeter=centerPerimeter;snapToPoint=1;" parent="1" vertex="1">
          <mxGeometry x="785" y="550" width="20" height="20" as="geometry" />
        </mxCell>
        <mxCell id="7AGCUOTx4ptlF9nV3zEV-135" value="" style="edgeStyle=orthogonalEdgeStyle;rounded=0;orthogonalLoop=1;jettySize=auto;html=1;exitX=1.002;exitY=0.241;exitDx=0;exitDy=0;entryDx=0;entryDy=0;endArrow=none;endFill=0;exitPerimeter=0;" parent="1" source="7AGCUOTx4ptlF9nV3zEV-8" target="7AGCUOTx4ptlF9nV3zEV-134" edge="1">
          <mxGeometry relative="1" as="geometry">
            <mxPoint x="460" y="670" as="sourcePoint" />
            <mxPoint x="517" y="190" as="targetPoint" />
            <Array as="points">
              <mxPoint x="480" y="566" />
            </Array>
          </mxGeometry>
        </mxCell>
        <mxCell id="7AGCUOTx4ptlF9nV3zEV-136" value="" style="edgeStyle=orthogonalEdgeStyle;rounded=0;orthogonalLoop=1;jettySize=auto;html=1;" parent="1" source="7AGCUOTx4ptlF9nV3zEV-134" target="7AGCUOTx4ptlF9nV3zEV-28" edge="1">
          <mxGeometry relative="1" as="geometry" />
        </mxCell>
        <mxCell id="7AGCUOTx4ptlF9nV3zEV-134" value="" style="shape=waypoint;sketch=0;fillStyle=solid;size=6;pointerEvents=1;points=[];fillColor=none;resizable=0;rotatable=0;perimeter=centerPerimeter;snapToPoint=1;" parent="1" vertex="1">
          <mxGeometry x="470" y="355" width="20" height="20" as="geometry" />
        </mxCell>
        <mxCell id="WGRCAQS2CZB4Ie9VM8L0-18" style="edgeStyle=orthogonalEdgeStyle;rounded=0;orthogonalLoop=1;jettySize=auto;html=1;exitX=0.25;exitY=0;exitDx=0;exitDy=0;entryX=0.5;entryY=1;entryDx=0;entryDy=0;fillColor=#0050ef;strokeColor=#001DBC;" parent="1" source="7AGCUOTx4ptlF9nV3zEV-152" target="7AGCUOTx4ptlF9nV3zEV-22" edge="1">
          <mxGeometry relative="1" as="geometry">
            <Array as="points">
              <mxPoint x="1095" y="760" />
              <mxPoint x="1075" y="760" />
            </Array>
          </mxGeometry>
        </mxCell>
        <mxCell id="WGRCAQS2CZB4Ie9VM8L0-19" style="edgeStyle=orthogonalEdgeStyle;rounded=0;orthogonalLoop=1;jettySize=auto;html=1;exitX=0.75;exitY=0;exitDx=0;exitDy=0;entryX=0.5;entryY=1;entryDx=0;entryDy=0;fillColor=#0050ef;strokeColor=#001DBC;" parent="1" source="7AGCUOTx4ptlF9nV3zEV-152" target="7AGCUOTx4ptlF9nV3zEV-21" edge="1">
          <mxGeometry relative="1" as="geometry">
            <Array as="points">
              <mxPoint x="1120" y="800" />
              <mxPoint x="1120" y="720" />
              <mxPoint x="1100" y="720" />
              <mxPoint x="1100" y="600" />
              <mxPoint x="1075" y="600" />
            </Array>
          </mxGeometry>
        </mxCell>
        <mxCell id="WGRCAQS2CZB4Ie9VM8L0-1" style="edgeStyle=orthogonalEdgeStyle;rounded=0;orthogonalLoop=1;jettySize=auto;html=1;exitX=0;exitY=0.25;exitDx=0;exitDy=0;entryX=0.5;entryY=0;entryDx=0;entryDy=0;fillColor=#0050ef;strokeColor=#001DBC;" parent="1" source="7AGCUOTx4ptlF9nV3zEV-153" target="7AGCUOTx4ptlF9nV3zEV-3" edge="1">
          <mxGeometry relative="1" as="geometry" />
        </mxCell>
        <mxCell id="r3CQyimWaxTI8VOWc62i-1" value="PCWrite" style="edgeLabel;html=1;align=center;verticalAlign=middle;resizable=0;points=[];" parent="WGRCAQS2CZB4Ie9VM8L0-1" vertex="1" connectable="0">
          <mxGeometry x="0.7837" y="-4" relative="1" as="geometry">
            <mxPoint x="4" y="25" as="offset" />
          </mxGeometry>
        </mxCell>
        <mxCell id="WGRCAQS2CZB4Ie9VM8L0-5" style="edgeStyle=orthogonalEdgeStyle;rounded=0;orthogonalLoop=1;jettySize=auto;html=1;exitX=0.014;exitY=0.875;exitDx=0;exitDy=0;entryX=0.5;entryY=0;entryDx=0;entryDy=0;fillColor=#0050ef;strokeColor=#001DBC;exitPerimeter=0;" parent="1" source="7AGCUOTx4ptlF9nV3zEV-153" target="7AGCUOTx4ptlF9nV3zEV-8" edge="1">
          <mxGeometry relative="1" as="geometry">
            <Array as="points">
              <mxPoint x="501" y="260" />
              <mxPoint x="440" y="260" />
            </Array>
          </mxGeometry>
        </mxCell>
        <mxCell id="2nhumJkl5wTfImcDvtph-67" value="FetchWrite" style="edgeLabel;html=1;align=center;verticalAlign=middle;resizable=0;points=[];" parent="WGRCAQS2CZB4Ie9VM8L0-5" vertex="1" connectable="0">
          <mxGeometry x="0.2976" relative="1" as="geometry">
            <mxPoint as="offset" />
          </mxGeometry>
        </mxCell>
        <mxCell id="WGRCAQS2CZB4Ie9VM8L0-10" style="edgeStyle=orthogonalEdgeStyle;rounded=0;orthogonalLoop=1;jettySize=auto;html=1;exitX=1;exitY=0.75;exitDx=0;exitDy=0;entryX=0.5;entryY=0;entryDx=0;entryDy=0;fillColor=#0050ef;strokeColor=#001DBC;" parent="1" source="7AGCUOTx4ptlF9nV3zEV-153" target="7AGCUOTx4ptlF9nV3zEV-19" edge="1">
          <mxGeometry relative="1" as="geometry" />
        </mxCell>
        <mxCell id="2nhumJkl5wTfImcDvtph-68" value="MakeBubble" style="edgeLabel;html=1;align=center;verticalAlign=middle;resizable=0;points=[];" parent="WGRCAQS2CZB4Ie9VM8L0-10" vertex="1" connectable="0">
          <mxGeometry x="-0.7265" y="-1" relative="1" as="geometry">
            <mxPoint x="8" y="-8" as="offset" />
          </mxGeometry>
        </mxCell>
        <mxCell id="7AGCUOTx4ptlF9nV3zEV-158" style="edgeStyle=orthogonalEdgeStyle;rounded=0;orthogonalLoop=1;jettySize=auto;html=1;exitX=1;exitY=0.35;exitDx=0;exitDy=0;entryX=0;entryY=0.5;entryDx=0;entryDy=0;exitPerimeter=0;" parent="1" source="7AGCUOTx4ptlF9nV3zEV-10" target="7AGCUOTx4ptlF9nV3zEV-24" edge="1">
          <mxGeometry relative="1" as="geometry" />
        </mxCell>
        <mxCell id="7AGCUOTx4ptlF9nV3zEV-160" style="edgeStyle=orthogonalEdgeStyle;rounded=0;orthogonalLoop=1;jettySize=auto;html=1;exitX=0.5;exitY=0;exitDx=0;exitDy=0;entryX=0;entryY=0.35;entryDx=0;entryDy=0;entryPerimeter=0;" parent="1" source="7AGCUOTx4ptlF9nV3zEV-23" target="7AGCUOTx4ptlF9nV3zEV-10" edge="1">
          <mxGeometry relative="1" as="geometry" />
        </mxCell>
        <mxCell id="89ZvUE202JPkDvs2KMA7-1" value="&lt;div&gt;alu_data&lt;/div&gt;" style="edgeLabel;html=1;align=center;verticalAlign=middle;resizable=0;points=[];" parent="7AGCUOTx4ptlF9nV3zEV-160" connectable="0" vertex="1">
          <mxGeometry x="0.02" y="2" relative="1" as="geometry">
            <mxPoint y="12" as="offset" />
          </mxGeometry>
        </mxCell>
        <mxCell id="7AGCUOTx4ptlF9nV3zEV-161" style="edgeStyle=orthogonalEdgeStyle;rounded=0;orthogonalLoop=1;jettySize=auto;html=1;exitX=1;exitY=0.575;exitDx=0;exitDy=0;entryX=0;entryY=0.75;entryDx=0;entryDy=0;exitPerimeter=0;" parent="1" source="7AGCUOTx4ptlF9nV3zEV-10" target="7AGCUOTx4ptlF9nV3zEV-24" edge="1">
          <mxGeometry relative="1" as="geometry" />
        </mxCell>
        <mxCell id="7AGCUOTx4ptlF9nV3zEV-162" style="edgeStyle=orthogonalEdgeStyle;rounded=0;orthogonalLoop=1;jettySize=auto;html=1;exitX=1;exitY=0.7;exitDx=0;exitDy=0;entryX=0;entryY=0.75;entryDx=0;entryDy=0;exitPerimeter=0;" parent="1" source="7AGCUOTx4ptlF9nV3zEV-9" target="7AGCUOTx4ptlF9nV3zEV-26" edge="1">
          <mxGeometry relative="1" as="geometry">
            <Array as="points">
              <mxPoint x="970" y="750" />
              <mxPoint x="1110" y="750" />
              <mxPoint x="1110" y="648" />
            </Array>
          </mxGeometry>
        </mxCell>
        <mxCell id="sZSkLrOZnHPghDmqJCr5-8" value="immediate_data" style="edgeLabel;html=1;align=center;verticalAlign=middle;resizable=0;points=[];" parent="7AGCUOTx4ptlF9nV3zEV-162" vertex="1" connectable="0">
          <mxGeometry x="-0.7818" y="-2" relative="1" as="geometry">
            <mxPoint x="-10" y="8" as="offset" />
          </mxGeometry>
        </mxCell>
        <mxCell id="7AGCUOTx4ptlF9nV3zEV-166" style="edgeStyle=orthogonalEdgeStyle;rounded=0;orthogonalLoop=1;jettySize=auto;html=1;exitX=1;exitY=0.5;exitDx=0;exitDy=0;entryX=0;entryY=0.35;entryDx=0;entryDy=0;entryPerimeter=0;" parent="1" source="7AGCUOTx4ptlF9nV3zEV-24" target="7AGCUOTx4ptlF9nV3zEV-11" edge="1">
          <mxGeometry relative="1" as="geometry" />
        </mxCell>
        <mxCell id="7AGCUOTx4ptlF9nV3zEV-167" value="" style="endArrow=none;html=1;rounded=0;" parent="1" edge="1">
          <mxGeometry width="50" height="50" relative="1" as="geometry">
            <mxPoint x="1390" y="680" as="sourcePoint" />
            <mxPoint x="1390" y="600" as="targetPoint" />
          </mxGeometry>
        </mxCell>
        <mxCell id="7AGCUOTx4ptlF9nV3zEV-168" value="" style="endArrow=classic;html=1;rounded=0;entryX=0;entryY=0.55;entryDx=0;entryDy=0;entryPerimeter=0;" parent="1" source="7AGCUOTx4ptlF9nV3zEV-180" target="7AGCUOTx4ptlF9nV3zEV-11" edge="1">
          <mxGeometry width="50" height="50" relative="1" as="geometry">
            <mxPoint x="1390" y="680" as="sourcePoint" />
            <mxPoint x="1420" y="680" as="targetPoint" />
          </mxGeometry>
        </mxCell>
        <mxCell id="DsYDhSo6NEuyJjisCCVG-1" value="" style="edgeStyle=orthogonalEdgeStyle;rounded=0;orthogonalLoop=1;jettySize=auto;html=1;" parent="1" source="7AGCUOTx4ptlF9nV3zEV-169" target="UQYHfkJtcrYxQFcCTSDP-1" edge="1">
          <mxGeometry relative="1" as="geometry" />
        </mxCell>
        <mxCell id="7AGCUOTx4ptlF9nV3zEV-169" value="" style="shape=waypoint;sketch=0;fillStyle=solid;size=6;pointerEvents=1;points=[];fillColor=none;resizable=0;rotatable=0;perimeter=centerPerimeter;snapToPoint=1;" parent="1" vertex="1">
          <mxGeometry x="1380" y="590" width="20" height="20" as="geometry" />
        </mxCell>
        <mxCell id="7AGCUOTx4ptlF9nV3zEV-179" value="" style="endArrow=classic;html=1;rounded=0;entryX=0;entryY=0.667;entryDx=0;entryDy=0;entryPerimeter=0;" parent="1" target="7AGCUOTx4ptlF9nV3zEV-12" edge="1">
          <mxGeometry width="50" height="50" relative="1" as="geometry">
            <mxPoint x="1040" y="880" as="sourcePoint" />
            <mxPoint x="670" y="630" as="targetPoint" />
            <Array as="points">
              <mxPoint x="570" y="880" />
              <mxPoint x="570" y="630" />
            </Array>
          </mxGeometry>
        </mxCell>
        <mxCell id="iRF73-ydp--cM6KkQBau-11" value="write_data" style="edgeLabel;html=1;align=center;verticalAlign=middle;resizable=0;points=[];" parent="7AGCUOTx4ptlF9nV3zEV-179" vertex="1" connectable="0">
          <mxGeometry x="0.3745" y="-1" relative="1" as="geometry">
            <mxPoint x="79" y="14" as="offset" />
          </mxGeometry>
        </mxCell>
        <mxCell id="7AGCUOTx4ptlF9nV3zEV-181" value="" style="endArrow=classic;html=1;rounded=0;entryDx=0;entryDy=0;entryPerimeter=0;" parent="1" target="7AGCUOTx4ptlF9nV3zEV-180" edge="1">
          <mxGeometry width="50" height="50" relative="1" as="geometry">
            <mxPoint x="1390" y="680" as="sourcePoint" />
            <mxPoint x="1570" y="680" as="targetPoint" />
          </mxGeometry>
        </mxCell>
        <mxCell id="7AGCUOTx4ptlF9nV3zEV-180" value="" style="shape=waypoint;sketch=0;fillStyle=solid;size=6;pointerEvents=1;points=[];fillColor=none;resizable=0;rotatable=0;perimeter=centerPerimeter;snapToPoint=1;" parent="1" vertex="1">
          <mxGeometry x="1380" y="670" width="20" height="20" as="geometry" />
        </mxCell>
        <mxCell id="7AGCUOTx4ptlF9nV3zEV-184" value="" style="shape=waypoint;sketch=0;fillStyle=solid;size=6;pointerEvents=1;points=[];fillColor=none;resizable=0;rotatable=0;perimeter=centerPerimeter;snapToPoint=1;" parent="1" vertex="1">
          <mxGeometry x="1010" y="637" width="20" height="20" as="geometry" />
        </mxCell>
        <mxCell id="7AGCUOTx4ptlF9nV3zEV-187" value="" style="shape=waypoint;sketch=0;fillStyle=solid;size=6;pointerEvents=1;points=[];fillColor=none;resizable=0;rotatable=0;perimeter=centerPerimeter;snapToPoint=1;" parent="1" vertex="1">
          <mxGeometry x="1030" y="625" width="20" height="20" as="geometry" />
        </mxCell>
        <mxCell id="7AGCUOTx4ptlF9nV3zEV-188" style="edgeStyle=orthogonalEdgeStyle;rounded=0;orthogonalLoop=1;jettySize=auto;html=1;exitX=1;exitY=0.55;exitDx=0;exitDy=0;entryX=0;entryY=0.75;entryDx=0;entryDy=0;exitPerimeter=0;" parent="1" source="7AGCUOTx4ptlF9nV3zEV-11" target="7AGCUOTx4ptlF9nV3zEV-25" edge="1">
          <mxGeometry relative="1" as="geometry" />
        </mxCell>
        <mxCell id="7AGCUOTx4ptlF9nV3zEV-189" style="edgeStyle=orthogonalEdgeStyle;rounded=0;orthogonalLoop=1;jettySize=auto;html=1;exitX=1;exitY=0.35;exitDx=0;exitDy=0;entryX=0;entryY=0.25;entryDx=0;entryDy=0;exitPerimeter=0;" parent="1" source="7AGCUOTx4ptlF9nV3zEV-11" target="7AGCUOTx4ptlF9nV3zEV-25" edge="1">
          <mxGeometry relative="1" as="geometry" />
        </mxCell>
        <mxCell id="7AGCUOTx4ptlF9nV3zEV-191" value="" style="edgeStyle=orthogonalEdgeStyle;rounded=0;orthogonalLoop=1;jettySize=auto;html=1;exitX=1;exitY=0.5;exitDx=0;exitDy=0;endArrow=none;endFill=0;" parent="1" source="7AGCUOTx4ptlF9nV3zEV-25" edge="1">
          <mxGeometry relative="1" as="geometry">
            <mxPoint x="1690" y="660" as="sourcePoint" />
            <mxPoint x="1040" y="920" as="targetPoint" />
            <Array as="points">
              <mxPoint x="1710" y="660" />
              <mxPoint x="1710" y="920" />
              <mxPoint x="1040" y="920" />
            </Array>
          </mxGeometry>
        </mxCell>
        <mxCell id="sZSkLrOZnHPghDmqJCr5-5" value="wb_data" style="edgeLabel;html=1;align=center;verticalAlign=middle;resizable=0;points=[];" parent="7AGCUOTx4ptlF9nV3zEV-191" vertex="1" connectable="0">
          <mxGeometry x="-0.8005" y="1" relative="1" as="geometry">
            <mxPoint as="offset" />
          </mxGeometry>
        </mxCell>
        <mxCell id="WGRCAQS2CZB4Ie9VM8L0-16" value="" style="shape=waypoint;sketch=0;fillStyle=solid;size=6;pointerEvents=1;points=[];fillColor=#0050ef;resizable=0;rotatable=0;perimeter=centerPerimeter;snapToPoint=1;fontColor=#ffffff;strokeColor=#001DBC;" parent="1" vertex="1">
          <mxGeometry x="980" y="330" width="20" height="20" as="geometry" />
        </mxCell>
        <mxCell id="WGRCAQS2CZB4Ie9VM8L0-22" value="" style="shape=waypoint;sketch=0;fillStyle=solid;size=6;pointerEvents=1;points=[];fillColor=#0050ef;resizable=0;rotatable=0;perimeter=centerPerimeter;snapToPoint=1;fontColor=#ffffff;strokeColor=#001DBC;" parent="1" vertex="1">
          <mxGeometry x="1340" y="330" width="20" height="20" as="geometry" />
        </mxCell>
        <mxCell id="WGRCAQS2CZB4Ie9VM8L0-25" value="" style="shape=waypoint;sketch=0;fillStyle=solid;size=6;pointerEvents=1;points=[];fillColor=#0050ef;resizable=0;rotatable=0;perimeter=centerPerimeter;snapToPoint=1;fontColor=#ffffff;strokeColor=#001DBC;" parent="1" vertex="1">
          <mxGeometry x="1620" y="410" width="20" height="20" as="geometry" />
        </mxCell>
        <mxCell id="WGRCAQS2CZB4Ie9VM8L0-32" style="edgeStyle=orthogonalEdgeStyle;rounded=0;orthogonalLoop=1;jettySize=auto;html=1;exitX=0.25;exitY=0;exitDx=0;exitDy=0;entryX=0;entryY=0.269;entryDx=0;entryDy=0;entryPerimeter=0;fillColor=#0050ef;strokeColor=#001DBC;" parent="1" source="7AGCUOTx4ptlF9nV3zEV-23" target="7AGCUOTx4ptlF9nV3zEV-10" edge="1">
          <mxGeometry relative="1" as="geometry" />
        </mxCell>
        <mxCell id="WGRCAQS2CZB4Ie9VM8L0-39" style="edgeStyle=orthogonalEdgeStyle;rounded=0;orthogonalLoop=1;jettySize=auto;html=1;exitX=0.5;exitY=0;exitDx=0;exitDy=0;entryX=1;entryY=0.25;entryDx=0;entryDy=0;fillColor=#0050ef;strokeColor=#001DBC;" parent="1" source="WGRCAQS2CZB4Ie9VM8L0-38" target="7AGCUOTx4ptlF9nV3zEV-23" edge="1">
          <mxGeometry relative="1" as="geometry" />
        </mxCell>
        <mxCell id="r3CQyimWaxTI8VOWc62i-11" value="" style="endArrow=none;dashed=1;html=1;rounded=0;fillColor=#d5e8d4;strokeColor=#82b366;" parent="1" edge="1">
          <mxGeometry width="50" height="50" relative="1" as="geometry">
            <mxPoint x="-172.96" y="339.13" as="sourcePoint" />
            <mxPoint x="400" y="340" as="targetPoint" />
          </mxGeometry>
        </mxCell>
        <mxCell id="r3CQyimWaxTI8VOWc62i-15" value="" style="endArrow=none;dashed=1;html=1;rounded=0;fillColor=#d5e8d4;strokeColor=#82b366;" parent="1" edge="1">
          <mxGeometry width="50" height="50" relative="1" as="geometry">
            <mxPoint x="400" y="690" as="sourcePoint" />
            <mxPoint x="-172.96" y="689.71" as="targetPoint" />
          </mxGeometry>
        </mxCell>
        <mxCell id="r3CQyimWaxTI8VOWc62i-16" value="" style="endArrow=none;dashed=1;html=1;rounded=0;fillColor=#d5e8d4;strokeColor=#82b366;" parent="1" edge="1">
          <mxGeometry width="50" height="50" relative="1" as="geometry">
            <mxPoint x="-172.96" y="339.13" as="sourcePoint" />
            <mxPoint x="-173" y="690" as="targetPoint" />
          </mxGeometry>
        </mxCell>
        <mxCell id="r3CQyimWaxTI8VOWc62i-17" value="fetch_stage.sv" style="text;html=1;strokeColor=#82b366;fillColor=#d5e8d4;align=center;verticalAlign=middle;whiteSpace=wrap;rounded=0;" parent="1" vertex="1">
          <mxGeometry x="7.039999999999999" y="319.13" width="80" height="30" as="geometry" />
        </mxCell>
        <mxCell id="r3CQyimWaxTI8VOWc62i-18" value="" style="shape=waypoint;sketch=0;fillStyle=solid;size=6;pointerEvents=1;points=[];fillColor=none;resizable=0;rotatable=0;perimeter=centerPerimeter;snapToPoint=1;" parent="1" vertex="1">
          <mxGeometry x="-63.96000000000001" y="579.96" width="20" height="20" as="geometry" />
        </mxCell>
        <mxCell id="UQYHfkJtcrYxQFcCTSDP-1" value="zero_flag" style="text;html=1;strokeColor=none;fillColor=none;align=center;verticalAlign=middle;whiteSpace=wrap;rounded=0;" parent="1" vertex="1">
          <mxGeometry x="1230" y="530" width="60" height="30" as="geometry" />
        </mxCell>
        <mxCell id="iRF73-ydp--cM6KkQBau-5" value="&lt;div&gt;Instruction&lt;/div&gt;&lt;div&gt;&lt;br&gt;&lt;/div&gt;" style="text;html=1;align=center;verticalAlign=middle;whiteSpace=wrap;rounded=0;" parent="1" vertex="1">
          <mxGeometry x="440" y="675" width="60" height="30" as="geometry" />
        </mxCell>
        <mxCell id="2nhumJkl5wTfImcDvtph-6" value="right_operand" style="text;html=1;align=center;verticalAlign=middle;whiteSpace=wrap;rounded=0;" parent="1" vertex="1">
          <mxGeometry x="1180" y="629.96" width="60" height="30" as="geometry" />
        </mxCell>
        <mxCell id="2nhumJkl5wTfImcDvtph-8" value="alu_result" style="text;html=1;align=center;verticalAlign=middle;whiteSpace=wrap;rounded=0;movable=1;resizable=1;rotatable=1;deletable=1;editable=1;locked=0;connectable=1;" parent="1" vertex="1">
          <mxGeometry x="1340" y="575" width="60" height="30" as="geometry" />
        </mxCell>
        <mxCell id="2nhumJkl5wTfImcDvtph-11" value="memory_bypass" style="text;html=1;align=center;verticalAlign=middle;whiteSpace=wrap;rounded=0;" parent="1" vertex="1">
          <mxGeometry x="1480" y="680" width="60" height="30" as="geometry" />
        </mxCell>
        <mxCell id="2nhumJkl5wTfImcDvtph-12" value="memory_output" style="text;html=1;align=center;verticalAlign=middle;whiteSpace=wrap;rounded=0;" parent="1" vertex="1">
          <mxGeometry x="1490" y="575" width="60" height="30" as="geometry" />
        </mxCell>
        <mxCell id="2nhumJkl5wTfImcDvtph-39" value="Decode Stage" style="text;html=1;align=center;verticalAlign=middle;whiteSpace=wrap;rounded=0;fillColor=#d5e8d4;strokeColor=#82b366;" parent="1" vertex="1">
          <mxGeometry x="630" y="120" width="95" height="30" as="geometry" />
        </mxCell>
        <mxCell id="2nhumJkl5wTfImcDvtph-44" value="Execute Stage" style="text;html=1;align=center;verticalAlign=middle;whiteSpace=wrap;rounded=0;fillColor=#d5e8d4;strokeColor=#82b366;" parent="1" vertex="1">
          <mxGeometry x="1070" y="210" width="110" height="30" as="geometry" />
        </mxCell>
        <mxCell id="2nhumJkl5wTfImcDvtph-45" value="" style="swimlane;startSize=0;dashed=1;fillColor=#d5e8d4;strokeColor=#82b366;" parent="1" vertex="1">
          <mxGeometry x="1340" y="320" width="220" height="550" as="geometry" />
        </mxCell>
        <mxCell id="WGRCAQS2CZB4Ie9VM8L0-44" value="MemWrite&lt;br&gt;" style="text;html=1;align=center;verticalAlign=middle;resizable=0;points=[];autosize=1;strokeColor=none;fillColor=none;" parent="2nhumJkl5wTfImcDvtph-45" vertex="1">
          <mxGeometry x="20" y="170" width="80" height="30" as="geometry" />
        </mxCell>
        <mxCell id="2nhumJkl5wTfImcDvtph-46" value="Memory Stage" style="text;html=1;align=center;verticalAlign=middle;whiteSpace=wrap;rounded=0;fillColor=#d5e8d4;strokeColor=#82b366;" parent="1" vertex="1">
          <mxGeometry x="1400" y="290" width="110" height="30" as="geometry" />
        </mxCell>
        <mxCell id="7AGCUOTx4ptlF9nV3zEV-182" style="edgeStyle=orthogonalEdgeStyle;rounded=0;orthogonalLoop=1;jettySize=auto;html=1;exitX=0.55;exitY=0.771;exitDx=0;exitDy=0;entryX=0;entryY=0.75;entryDx=0;entryDy=0;exitPerimeter=0;" parent="1" source="7AGCUOTx4ptlF9nV3zEV-180" target="7AGCUOTx4ptlF9nV3zEV-21" edge="1">
          <mxGeometry relative="1" as="geometry">
            <Array as="points">
              <mxPoint x="1390" y="900" />
              <mxPoint x="1020" y="900" />
              <mxPoint x="1020" y="568" />
            </Array>
          </mxGeometry>
        </mxCell>
        <mxCell id="BDfC4eA5wMOMeH6UXcKp-5" value="" style="endArrow=classic;html=1;rounded=0;exitX=1;exitY=0.5;exitDx=0;exitDy=0;entryX=-0.02;entryY=0.311;entryDx=0;entryDy=0;entryPerimeter=0;" parent="1" source="BDfC4eA5wMOMeH6UXcKp-3" target="7AGCUOTx4ptlF9nV3zEV-9" edge="1">
          <mxGeometry width="50" height="50" relative="1" as="geometry">
            <mxPoint x="900" y="640" as="sourcePoint" />
            <mxPoint x="920" y="580" as="targetPoint" />
          </mxGeometry>
        </mxCell>
        <mxCell id="BDfC4eA5wMOMeH6UXcKp-6" value="" style="endArrow=classic;html=1;rounded=0;exitX=1;exitY=0.5;exitDx=0;exitDy=0;entryX=-0.008;entryY=0.562;entryDx=0;entryDy=0;entryPerimeter=0;" parent="1" source="BDfC4eA5wMOMeH6UXcKp-4" target="7AGCUOTx4ptlF9nV3zEV-9" edge="1">
          <mxGeometry width="50" height="50" relative="1" as="geometry">
            <mxPoint x="900" y="650" as="sourcePoint" />
            <mxPoint x="950" y="600" as="targetPoint" />
          </mxGeometry>
        </mxCell>
        <mxCell id="1hy8bIU-TZn22G8GkrLQ-7" style="edgeStyle=orthogonalEdgeStyle;rounded=0;orthogonalLoop=1;jettySize=auto;html=1;entryX=0;entryY=0.25;entryDx=0;entryDy=0;" parent="1" source="1hy8bIU-TZn22G8GkrLQ-1" target="1hy8bIU-TZn22G8GkrLQ-3" edge="1">
          <mxGeometry relative="1" as="geometry">
            <Array as="points">
              <mxPoint x="310" y="590" />
              <mxPoint x="310" y="602" />
            </Array>
          </mxGeometry>
        </mxCell>
        <mxCell id="1hy8bIU-TZn22G8GkrLQ-1" value="Decompressor" style="rounded=0;whiteSpace=wrap;html=1;" parent="1" vertex="1">
          <mxGeometry x="190" y="560" width="100" height="60" as="geometry" />
        </mxCell>
        <mxCell id="1hy8bIU-TZn22G8GkrLQ-3" value="mux&lt;br&gt;" style="rounded=1;whiteSpace=wrap;html=1;" parent="1" vertex="1">
          <mxGeometry x="340" y="590" width="30" height="50" as="geometry" />
        </mxCell>
        <mxCell id="1hy8bIU-TZn22G8GkrLQ-8" value="" style="endArrow=classic;html=1;rounded=0;entryX=0;entryY=0.5;entryDx=0;entryDy=0;" parent="1" target="1hy8bIU-TZn22G8GkrLQ-1" edge="1">
          <mxGeometry width="50" height="50" relative="1" as="geometry">
            <mxPoint x="170" y="590" as="sourcePoint" />
            <mxPoint x="190" y="540" as="targetPoint" />
          </mxGeometry>
        </mxCell>
        <mxCell id="1hy8bIU-TZn22G8GkrLQ-9" value="Instruction" style="text;html=1;align=center;verticalAlign=middle;resizable=0;points=[];autosize=1;strokeColor=none;fillColor=none;" parent="1" vertex="1">
          <mxGeometry x="200" y="635" width="80" height="30" as="geometry" />
        </mxCell>
        <mxCell id="1hy8bIU-TZn22G8GkrLQ-11" value="&lt;font style=&quot;font-size: 10px;&quot;&gt;Decompressed &lt;br&gt;Instruction&lt;/font&gt;" style="text;html=1;align=center;verticalAlign=middle;resizable=0;points=[];autosize=1;strokeColor=none;fillColor=none;" parent="1" vertex="1">
          <mxGeometry x="290" y="550" width="90" height="40" as="geometry" />
        </mxCell>
        <mxCell id="1hy8bIU-TZn22G8GkrLQ-12" style="edgeStyle=orthogonalEdgeStyle;rounded=0;orthogonalLoop=1;jettySize=auto;html=1;entryX=0.003;entryY=0.491;entryDx=0;entryDy=0;entryPerimeter=0;" parent="1" source="1hy8bIU-TZn22G8GkrLQ-3" target="7AGCUOTx4ptlF9nV3zEV-8" edge="1">
          <mxGeometry relative="1" as="geometry" />
        </mxCell>
        <mxCell id="1hy8bIU-TZn22G8GkrLQ-13" style="edgeStyle=orthogonalEdgeStyle;rounded=0;orthogonalLoop=1;jettySize=auto;html=1;entryX=0.5;entryY=1;entryDx=0;entryDy=0;exitX=1;exitY=0.75;exitDx=0;exitDy=0;" parent="1" source="7AGCUOTx4ptlF9nV3zEV-2" target="1hy8bIU-TZn22G8GkrLQ-3" edge="1">
          <mxGeometry relative="1" as="geometry">
            <Array as="points">
              <mxPoint x="160" y="619" />
              <mxPoint x="160" y="670" />
              <mxPoint x="355" y="670" />
            </Array>
          </mxGeometry>
        </mxCell>
        <mxCell id="1hy8bIU-TZn22G8GkrLQ-14" value="flag_compressed" style="text;html=1;align=center;verticalAlign=middle;resizable=0;points=[];autosize=1;strokeColor=none;fillColor=none;" parent="1" vertex="1">
          <mxGeometry x="250" y="665" width="110" height="30" as="geometry" />
        </mxCell>
        <mxCell id="1hy8bIU-TZn22G8GkrLQ-16" value="" style="endArrow=none;dashed=1;html=1;rounded=0;fillColor=#d5e8d4;strokeColor=#82b366;" parent="1" edge="1">
          <mxGeometry width="50" height="50" relative="1" as="geometry">
            <mxPoint x="400.03999999999996" y="339.13" as="sourcePoint" />
            <mxPoint x="400" y="690" as="targetPoint" />
          </mxGeometry>
        </mxCell>
        <mxCell id="1hy8bIU-TZn22G8GkrLQ-18" style="edgeStyle=orthogonalEdgeStyle;rounded=0;orthogonalLoop=1;jettySize=auto;html=1;entryX=0.75;entryY=1;entryDx=0;entryDy=0;" parent="1" source="1hy8bIU-TZn22G8GkrLQ-17" target="7AGCUOTx4ptlF9nV3zEV-7" edge="1">
          <mxGeometry relative="1" as="geometry" />
        </mxCell>
        <mxCell id="1hy8bIU-TZn22G8GkrLQ-17" value="mux&lt;br&gt;" style="rounded=1;whiteSpace=wrap;html=1;" parent="1" vertex="1">
          <mxGeometry x="210" y="425" width="30" height="50" as="geometry" />
        </mxCell>
        <mxCell id="1hy8bIU-TZn22G8GkrLQ-19" value="" style="endArrow=classic;html=1;rounded=0;" parent="1" edge="1">
          <mxGeometry width="50" height="50" relative="1" as="geometry">
            <mxPoint x="170" y="439.75" as="sourcePoint" />
            <mxPoint x="210" y="439.75" as="targetPoint" />
          </mxGeometry>
        </mxCell>
        <mxCell id="1hy8bIU-TZn22G8GkrLQ-20" value="" style="endArrow=classic;html=1;rounded=0;" parent="1" edge="1">
          <mxGeometry width="50" height="50" relative="1" as="geometry">
            <mxPoint x="170" y="460" as="sourcePoint" />
            <mxPoint x="210" y="460" as="targetPoint" />
          </mxGeometry>
        </mxCell>
        <mxCell id="1hy8bIU-TZn22G8GkrLQ-24" value="2" style="text;html=1;align=center;verticalAlign=middle;resizable=0;points=[];autosize=1;strokeColor=none;fillColor=none;" parent="1" vertex="1">
          <mxGeometry x="145" y="425" width="30" height="30" as="geometry" />
        </mxCell>
        <mxCell id="1hy8bIU-TZn22G8GkrLQ-25" value="4" style="text;html=1;align=center;verticalAlign=middle;resizable=0;points=[];autosize=1;strokeColor=none;fillColor=none;" parent="1" vertex="1">
          <mxGeometry x="145" y="445" width="30" height="30" as="geometry" />
        </mxCell>
        <mxCell id="1hy8bIU-TZn22G8GkrLQ-26" value="" style="endArrow=classic;html=1;rounded=0;entryX=0.5;entryY=1;entryDx=0;entryDy=0;exitX=1.001;exitY=0.257;exitDx=0;exitDy=0;exitPerimeter=0;" parent="1" source="7AGCUOTx4ptlF9nV3zEV-2" target="1hy8bIU-TZn22G8GkrLQ-17" edge="1">
          <mxGeometry width="50" height="50" relative="1" as="geometry">
            <mxPoint x="160" y="630" as="sourcePoint" />
            <mxPoint x="230" y="520" as="targetPoint" />
            <Array as="points">
              <mxPoint x="160" y="560" />
              <mxPoint x="160" y="510" />
              <mxPoint x="225" y="510" />
            </Array>
          </mxGeometry>
        </mxCell>
        <mxCell id="1hy8bIU-TZn22G8GkrLQ-27" value="flag_compressed" style="text;html=1;align=center;verticalAlign=middle;resizable=0;points=[];autosize=1;strokeColor=none;fillColor=none;" parent="1" vertex="1">
          <mxGeometry x="160" y="505" width="110" height="30" as="geometry" />
        </mxCell>
        <mxCell id="BDfC4eA5wMOMeH6UXcKp-7" value="" style="endArrow=classic;html=1;rounded=0;entryX=0;entryY=0.5;entryDx=0;entryDy=0;jumpSize=3;endSize=3;startSize=3;" parent="1" source="KFCvP4lCxzIlAEKNkX3P-4" target="BDfC4eA5wMOMeH6UXcKp-3" edge="1">
          <mxGeometry width="50" height="50" relative="1" as="geometry">
            <mxPoint x="820" y="685" as="sourcePoint" />
            <mxPoint x="880" y="570" as="targetPoint" />
            <Array as="points">
              <mxPoint x="820" y="585" />
            </Array>
          </mxGeometry>
        </mxCell>
        <mxCell id="KFCvP4lCxzIlAEKNkX3P-5" value="" style="endArrow=classic;html=1;rounded=0;entryDx=0;entryDy=0;jumpSize=3;endSize=3;startSize=3;" parent="1" target="KFCvP4lCxzIlAEKNkX3P-4" edge="1">
          <mxGeometry width="50" height="50" relative="1" as="geometry">
            <mxPoint x="820" y="685" as="sourcePoint" />
            <mxPoint x="858" y="585" as="targetPoint" />
            <Array as="points" />
          </mxGeometry>
        </mxCell>
        <mxCell id="KFCvP4lCxzIlAEKNkX3P-4" value="" style="shape=waypoint;sketch=0;fillStyle=solid;size=6;pointerEvents=1;points=[];fillColor=none;resizable=0;rotatable=0;perimeter=centerPerimeter;snapToPoint=1;" parent="1" vertex="1">
          <mxGeometry x="810" y="675" width="20" height="20" as="geometry" />
        </mxCell>
        <mxCell id="KFCvP4lCxzIlAEKNkX3P-9" value="" style="swimlane;startSize=0;dashed=1;fillColor=#d5e8d4;strokeColor=#82b366;" parent="1" vertex="1">
          <mxGeometry x="1620" y="380" width="130" height="480" as="geometry" />
        </mxCell>
        <mxCell id="KFCvP4lCxzIlAEKNkX3P-10" value="Write B&lt;span style=&quot;color: rgba(0, 0, 0, 0); font-family: monospace; font-size: 0px; text-align: start; text-wrap: nowrap;&quot;&gt;%3CmxGraphModel%3E%3Croot%3E%3CmxCell%20id%3D%220%22%2F%3E%3CmxCell%20id%3D%221%22%20parent%3D%220%22%2F%3E%3CmxCell%20id%3D%222%22%20value%3D%22memory_stage.sv%22%20style%3D%22text%3Bhtml%3D1%3Balign%3Dcenter%3BverticalAlign%3Dmiddle%3BwhiteSpace%3Dwrap%3Brounded%3D0%3BfillColor%3D%23d5e8d4%3BstrokeColor%3D%2382b366%3B%22%20vertex%3D%221%22%20parent%3D%221%22%3E%3CmxGeometry%20x%3D%221470%22%20y%3D%22295%22%20width%3D%22110%22%20height%3D%2230%22%20as%3D%22geometry%22%2F%3E%3C%2FmxCell%3E%3C%2Froot%3E%3C%2FmxGraphModel%3EB&lt;/span&gt;ack Stage" style="text;html=1;align=center;verticalAlign=middle;whiteSpace=wrap;rounded=0;fillColor=#d5e8d4;strokeColor=#82b366;" parent="1" vertex="1">
          <mxGeometry x="1640" y="340" width="110" height="30" as="geometry" />
        </mxCell>
        <mxCell id="KFCvP4lCxzIlAEKNkX3P-11" style="edgeStyle=orthogonalEdgeStyle;rounded=0;orthogonalLoop=1;jettySize=auto;html=1;exitX=0.5;exitY=1;exitDx=0;exitDy=0;" parent="1" source="2nhumJkl5wTfImcDvtph-38" target="2nhumJkl5wTfImcDvtph-38" edge="1">
          <mxGeometry relative="1" as="geometry" />
        </mxCell>
      </root>
    </mxGraphModel>
  </diagram>
</mxfile>
